<svg xmlns="http://www.w3.org/2000/svg" width="112.539" height="106.276" viewBox="0 0 112.539 106.276">
  <g id="Logo" transform="translate(-434 -383.104)">
    <g id="Grupo_2" data-name="Grupo 2" transform="translate(434 394.855)">
      <text id="Xangai" transform="translate(0 71.525)" fill="#fff" font-size="39" font-family="HanyiSentyWen"><tspan x="0" y="0">Xangai</tspan></text>
      <text id="vai_a" data-name="vai a" transform="translate(37.057 48)" fill="#fff" font-size="18" font-family="Xilosa"><tspan x="0" y="0">VAI A</tspan></text>
      <g id="Grupo_1" data-name="Grupo 1" transform="translate(0.919 0)">
        <text id="C" transform="translate(5.319 40.025) rotate(-9)" fill="#fff" font-size="45" font-family="Xilosa"><tspan x="0" y="0">C</tspan></text>
        <text id="h" transform="translate(25.284 29.686)" fill="#fff" font-size="37" font-family="Xilosa"><tspan x="0" y="0">H</tspan></text>
        <text id="i" transform="translate(50.772 29.569) rotate(-4.992)" fill="#fff" font-size="37" font-family="Xilosa"><tspan x="0" y="0">I</tspan></text>
        <text id="C-2" data-name="C" transform="matrix(0.985, 0.174, -0.174, 0.985, 59.382, 30.535)" fill="#fff" font-size="41" font-family="Xilosa"><tspan x="0" y="0">C</tspan></text>
        <text id="ó" transform="translate(78.146 35.896) rotate(15.009)" fill="#fff" font-size="41" font-family="Xilosa"><tspan x="0" y="0">Ó</tspan></text>
      </g>
    </g>
    <g id="Grupo_4" data-name="Grupo 4" transform="translate(470.552 383.105)">
      <path id="Subtração_8" data-name="Subtração 8" d="M-915.365-121.787a20.056,20.056,0,0,1-3.92-.453l-1.3-.907.481.73-.051-.011-.515-.125a49.227,49.227,0,0,0-6.142-.608,49.43,49.43,0,0,0-6.143.608,22.649,22.649,0,0,1-5.3.765,6.151,6.151,0,0,1-1.793-.2,2.23,2.23,0,0,1-.946-.617,2.653,2.653,0,0,1-.419-2.609c.281-1.061,1.171-1.6,2.647-1.6a7.471,7.471,0,0,1,1.084.087,12.632,12.632,0,0,0,3.492.913h.005l-2.869-.864a22.24,22.24,0,0,1,2.142-2h1.181l-.644-.419A12.972,12.972,0,0,1-926.53-132h.08a11.7,11.7,0,0,1,4.93,1.192c.17.081.336.164.493.246l.643.975h.969a19.749,19.749,0,0,1,3.232,2.825l-3.181.957h.007a13.871,13.871,0,0,0,3.8-.962,6.727,6.727,0,0,1,.7-.038c1.474,0,2.365.538,2.647,1.6a2.654,2.654,0,0,1-.419,2.609,2.242,2.242,0,0,1-.947.616A6.074,6.074,0,0,1-915.365-121.787Z" transform="translate(942.058 131.999)" fill="#fff"/>
    </g>
  </g>
</svg>
